<?xml version="1.0" ?><svg height="48px" version="1.1" viewBox="0 0 48 48" width="48px" xmlns="http://www.w3.org/2000/svg" xmlns:sketch="http://www.bohemiancoding.com/sketch/ns" xmlns:xlink="http://www.w3.org/1999/xlink"><title/><defs/><g fill="none" fill-rule="evenodd" id="shadow" stroke="none" stroke-width="1"><g id="instagram"><path d="M24,48 C37.2548347,48 48,37.2548347 48,24 C48,10.7451653 37.2548347,0 24,0 C10.7451653,0 0,10.7451653 0,24 C0,37.2548347 10.7451653,48 24,48 Z" fill="#CE6F2D" id="Instagram"/><path d="M0.0423489188,22.5623462 C0.0142488684,23.037971 0,23.5173215 0,24 C0,37.1359419 10.5532667,47.8070349 23.6439336,47.9974124 L35.934616,35.70673 L36.6399048,26.5865379 L34.3790863,21.1403847 L36.8901428,18.3677887 L34.9757202,11.145433 L17.5805283,10.233654 L16.098558,12.339423 L15.7216339,10.233654 L14.3353363,12.339423 L13.9471161,10.233654 L11.7394234,13.2564903 L11.2074983,11.3971968 L0.0423489188,22.5623462 Z" fill="#000000" fill-opacity="0.400000006"/><path d="M17.4138891,19.3846154 L10.1538462,19.3846154 L10.1538462,18.4615385 L10.1538464,18.4615385 C10.1538468,27.3637008 10.1538462,32.9230769 10.1538462,32.9230769 C10.1538462,36.923076 14.1538462,36.923076 14.1538462,36.923076 L32.923076,36.923076 C32.923076,36.923076 36.923076,36.923076 36.9230769,32.9230769 L36.9230763,19.3846154 L36.9230769,19.3846154 L36.9230769,18.4615385 L29.0774302,18.4615385 C27.8143753,16.7799968 25.8034402,15.6923077 23.5384615,15.6923077 C21.2734829,15.6923077 19.2625477,16.7799968 17.9994929,18.4615385 L10.1538464,18.4615385 C10.1538464,17.1010751 10.1538463,15.6625405 10.1538462,14.1538462 C10.1538462,11.628976 11.7475885,10.6978482 12.9230769,10.3544646 L12.9230769,15.6923077 L13.8461538,15.6923077 L13.8461538,10.1735183 L13.8461538,10.1735183 C14.0381673,10.1538462 14.1538462,10.1538462 14.1538462,10.1538462 L32.9230769,10.1538462 C32.9230769,10.1538462 36.923076,10.1538462 36.923076,14.1538462 L36.9230763,19.3846154 L29.663034,19.3846154 C30.1728632,20.3491005 30.4615385,21.4485307 30.4615385,22.6153846 C30.4615385,26.4388946 27.3619715,29.5384615 23.5384615,29.5384615 C19.7149515,29.5384615 16.6153846,26.4388946 16.6153846,22.6153846 C16.6153846,21.4485307 16.9040599,20.3491005 17.4138891,19.3846154 L17.4138891,19.3846154 Z M32.45907,12 C31.3558638,12 30.4615385,12.8898926 30.4615385,13.9975315 L30.4615385,14.6178531 C30.4615385,15.7210593 31.351431,16.6153846 32.45907,16.6153846 L33.0793916,16.6153846 C34.1825978,16.6153846 35.0769231,15.725492 35.0769231,14.6178531 L35.0769231,13.9975315 C35.0769231,12.8943253 34.1870305,12 33.0793916,12 L32.45907,12 Z M16.6153846,10.1538462 L16.6153846,15.6923077 L17.5384615,15.6923077 L17.5384615,10.1538462 L16.6153846,10.1538462 Z M14.7692308,10.1538462 L14.7692308,15.6923077 L15.6923077,15.6923077 L15.6923077,10.1538462 L14.7692308,10.1538462 Z M23.5384615,28.1538462 C26.5972695,28.1538462 29.0769231,25.6741926 29.0769231,22.6153846 C29.0769231,19.5565766 26.5972695,17.0769231 23.5384615,17.0769231 C20.4796535,17.0769231 18,19.5565766 18,22.6153846 C18,25.6741926 20.4796535,28.1538462 23.5384615,28.1538462 Z M23.5384615,26.3076923 C25.5776669,26.3076923 27.2307692,24.6545899 27.2307692,22.6153846 C27.2307692,20.5761793 25.5776669,18.9230769 23.5384615,18.9230769 C21.4992562,18.9230769 19.8461538,20.5761793 19.8461538,22.6153846 C19.8461538,24.6545899 21.4992562,26.3076923 23.5384615,26.3076923 Z" fill="#FFFFFF"/></g></g></svg>