<?xml version="1.0" ?><svg height="48px" version="1.1" viewBox="0 0 48 48" width="48px" xmlns="http://www.w3.org/2000/svg" xmlns:sketch="http://www.bohemiancoding.com/sketch/ns" xmlns:xlink="http://www.w3.org/1999/xlink"><title/><defs/><g fill="none" fill-rule="evenodd" id="shadow" stroke="none" stroke-width="1"><g id="github"><path d="M24,48 C37.2548347,48 48,37.2548347 48,24 C48,10.7451653 37.2548347,0 24,0 C10.7451653,0 0,10.7451653 0,24 C0,37.2548347 10.7451653,48 24,48 Z" fill="#424242"/><path d="M0.188946553,27.0260696 C1.5827542,38.1048161 10.5284776,46.8328177 21.7080211,47.8919789 L34.4477109,35.1522891 L36.7374084,22.0444199 L32.2002228,13.5405526 L13.6744636,13.5405526 L0.188946553,27.0260696 Z" fill="#000000" fill-opacity="0.400000006"/><path d="M20.3402192,38.013511 C20.3402192,37.6537383 20.3275258,36.7017817 20.3202724,35.4374644 C16.2121423,36.3522352 15.345364,33.4071195 15.345364,33.4071195 C14.6735202,31.6575275 13.7051947,31.1917753 13.7051947,31.1917753 C12.3642271,30.2519041 13.806742,30.2714266 13.806742,30.2714266 C15.2891504,30.3783358 16.0688882,31.8323007 16.0688882,31.8323007 C17.3862823,34.1461874 19.5251212,33.4787022 20.3674193,33.0910402 C20.5016067,32.1121239 20.8833156,31.4446387 21.304918,31.0662732 C18.025486,30.684189 14.577413,29.3845452 14.577413,23.5817005 C14.577413,21.9287916 15.1531496,20.5770876 16.0979017,19.5182218 C15.9464875,19.1352081 15.4387512,17.5957158 16.2429692,15.5105218 C16.2429692,15.5105218 17.4832962,15.1033373 20.3039523,17.0630291 C21.481719,16.7274273 22.7456195,16.5582319 24.0022667,16.552654 C25.2561938,16.5582319 26.5191877,16.7274273 27.6996744,17.0630291 C30.5185171,15.1033373 31.7570308,15.5105218 31.7570308,15.5105218 C32.5630621,17.5947861 32.0562325,19.1342784 31.9039117,19.5182218 C32.8504771,20.5770876 33.4216803,21.9287916 33.4216803,23.5817005 C33.4216803,29.3994195 29.9681673,30.6795408 26.6778552,31.0541878 C27.2091649,31.5217993 27.6806343,32.4458665 27.6806343,33.858927 C27.6806343,35.883694 27.6615942,37.5170805 27.6615942,38.013511 C27.6615942,38.4188362 27.9281557,38.8892366 28.6779733,38.7414231 C34.54142,36.735249 38.7692308,31.0625546 38.7692308,24.3746878 C38.7692308,16.0106709 32.1559664,9.23076923 23.9995467,9.23076923 C15.8440336,9.23076923 9.23076923,16.0106709 9.23076923,24.3746878 C9.2316759,31.0644139 13.4631133,36.7408268 19.3320001,38.7432824 C20.070031,38.8817995 20.3402192,38.414188 20.3402192,38.013511 Z" fill="#FFFFFF"/></g></g></svg>