<?xml version="1.0" ?><svg height="48px" version="1.1" viewBox="0 0 48 48" width="48px" xmlns="http://www.w3.org/2000/svg" xmlns:sketch="http://www.bohemiancoding.com/sketch/ns" xmlns:xlink="http://www.w3.org/1999/xlink"><title/><defs/><g fill="none" fill-rule="evenodd" id="shadow" stroke="none" stroke-width="1"><g id="Spotify"><path d="M24,48 C37.2548347,48 48,37.2548347 48,24 C48,10.7451653 37.2548347,0 24,0 C10.7451653,0 0,10.7451653 0,24 C0,37.2548347 10.7451653,48 24,48 Z" fill="#57BB63"/><path d="M0.136475239,26.5745691 C1.18655338,36.4206053 8.19077351,44.4870223 17.4787268,47.1034112 L31.7494094,32.8327286 L30.2023438,31.6518219 L34.2691401,27.5850255 L32.9552094,26.2054687 L37.6479156,21.4164062 L23.9458328,15.7570312 L10.5644845,16.1465599 L0.136475239,26.5745691 Z" fill="#000000" fill-opacity="0.400000006" id="spotify"/><path d="M30.9409216,33.2301909 C30.7674364,33.2251016 30.5945071,33.1736429 30.4377031,33.074684 C30.436035,33.074684 30.2353036,32.9451892 29.8232761,32.7206938 C29.4106926,32.4956329 28.8029381,32.18575 28.0456081,31.8605992 C26.5326164,31.2057738 24.4146503,30.4808289 22.0475772,30.2026129 C21.3208296,30.117791 20.6213281,30.0657669 19.9524089,30.0437132 C16.9442188,29.9430578 14.5799259,30.3982689 13.6163041,30.6233298 C13.2937995,30.6985386 13.1453361,30.7443424 13.1447801,30.7443424 C12.608199,30.9043732 12.046596,30.590532 11.88868,30.0454096 C11.732432,29.4991563 12.0393675,28.9268909 12.5753925,28.7674256 C12.6437857,28.7476338 15.6936791,27.8434319 20.0163538,27.9853673 C20.7369849,28.0102484 21.4948709,28.0650999 22.2777788,28.1572731 C27.5296006,28.7821281 31.4385797,31.2900303 31.5108652,31.3279174 C31.9857256,31.630449 32.1291845,32.2660481 31.8322578,32.7472713 C31.6354188,33.0707256 31.2901163,33.242066 30.9409216,33.2301909 Z M34.6230353,27.1575051 C34.3750404,27.5595611 33.9446634,27.7755743 33.50817,27.7603064 C33.2913135,27.7529551 33.0750129,27.6884905 32.8792859,27.5640849 C32.8781738,27.5657814 32.8336904,27.53468 32.7141413,27.463995 C32.5934801,27.3927446 32.4122102,27.2881309 32.1764482,27.159767 C31.7015878,26.9007773 31.0054226,26.5445252 30.1329918,26.1684812 C28.3925787,25.4158278 25.9565563,24.5845727 23.2352841,24.2656422 C22.4023323,24.1672488 21.5966267,24.1090044 20.8265078,24.0835578 C17.365143,23.967069 14.6444268,24.4901376 13.5384582,24.7491273 C13.1692459,24.8362112 13.0018771,24.8859734 13.000765,24.8876698 C12.3307338,25.0855877 11.6267839,24.6942758 11.4310569,24.0117419 C11.2342179,23.3286425 11.6184433,22.6133107 12.2901427,22.4165238 C12.3752172,22.3899463 15.9049752,21.3443744 20.908246,21.5106254 C21.7423099,21.5383339 22.6175208,21.6005367 23.5244262,21.7079778 C29.6097558,22.4329227 34.1337179,25.3321368 34.2237968,25.3835955 C34.81487,25.7624668 34.9950278,26.5558347 34.6230353,27.1575051 Z M37.6145442,21.4908336 C37.3159494,21.9737532 36.7977177,22.231612 36.2755938,22.2140821 C36.017034,22.2055999 35.75625,22.1292601 35.5221561,21.9788426 C35.5221561,21.9788426 35.467664,21.9437828 35.3264292,21.8595264 C35.1863064,21.7769663 34.9733421,21.6531263 34.6930967,21.5004468 C34.13483,21.1979152 33.3135552,20.7788948 32.2859885,20.3344278 C30.2341916,19.4483212 27.364456,18.467214 24.1599828,18.0911701 C23.1768996,17.9758122 22.2266229,17.9079547 21.3202736,17.8785497 C16.5622175,17.7168225 12.9924244,18.5814409 12.2434351,18.7833171 C12.1366749,18.8115911 12.098864,18.8229007 12.098864,18.8229007 C11.2942705,19.0620986 10.45131,18.5916195 10.2155479,17.773936 C9.97978591,16.9551215 10.4401891,16.0961579 11.2464508,15.85696 C11.3487626,15.828686 15.5146334,14.5936785 21.4192491,14.7904654 C22.4040005,14.8226978 23.4360154,14.8950791 24.5063973,15.0217466 C31.6915791,15.8784482 37.0256952,19.2990346 37.1341235,19.3606718 C37.8441898,19.8130556 38.0593783,20.7681507 37.6145442,21.4908336 Z" fill="#FFFFFF"/></g></g></svg>