<?xml version="1.0" ?><svg height="48px" version="1.1" viewBox="0 0 48 48" width="48px" xmlns="http://www.w3.org/2000/svg" xmlns:sketch="http://www.bohemiancoding.com/sketch/ns" xmlns:xlink="http://www.w3.org/1999/xlink"><title/><defs/><g fill="none" fill-rule="evenodd" id="shadow" stroke="none" stroke-width="1"><g id="twitter"><path d="M24,48 C37.2548347,48 48,37.2548347 48,24 C48,10.7451653 37.2548347,0 24,0 C10.7451653,0 0,10.7451653 0,24 C0,37.2548347 10.7451653,48 24,48 Z" fill="#4086CD" id="Twitter"/><path d="M0.137924016,26.5881171 C1.07526646,35.330163 6.70661627,42.6675036 14.4616633,46.0298289 L29.5743919,30.9171003 L25.4917618,14.3193182 L18.053125,22.4627841 L12.9057292,13.820312 L0.137924016,26.5881171 Z" fill="#000000" fill-opacity="0.400000006" id="Twitter"/><path d="M32.8417108,14.7493554 C31.8745477,13.6497612 30.4964308,12.9491713 28.9712492,12.9237848 C26.04288,12.8750425 23.6685231,15.3495387 23.6685231,18.4504928 C23.6685231,18.8905929 23.7154338,19.3197547 23.8058954,19.7317385 C19.3988677,19.4458821 15.4915754,17.1510165 12.8763323,13.6917774 C12.4198892,14.5206894 12.1583262,15.4895062 12.1583262,16.5273203 C12.1583262,18.4919908 13.0944738,20.2356218 14.5173046,21.2651339 C13.6480985,21.2267599 12.8304554,20.9636303 12.1155508,20.5319616 C12.1150338,20.555556 12.1150338,20.579156 12.1150338,20.60317 C12.1150338,23.3468398 13.9428738,25.6485661 16.3686646,26.1847507 C15.9237231,26.3108304 15.4552615,26.3768131 14.97168,26.3736064 C14.6299938,26.3713407 14.2977415,26.3334495 13.9740185,26.2654144 C14.6487323,28.5155021 16.6069662,30.157413 18.9274338,30.2117024 C17.1126462,31.7181571 14.8262954,32.6153546 12.3418338,32.6102296 C11.9138215,32.6093467 11.4917538,32.5816896 11.0769231,32.5284797 C13.4236246,34.1386511 16.2108738,35.0761368 19.2054092,35.0769225 C28.9588431,35.0794814 34.2925846,26.5916087 34.2925846,19.2294149 C34.2925846,18.9878691 34.2872862,18.7476153 34.2772062,18.5085216 C35.3132492,17.7365332 36.2121785,16.7686313 36.9230769,15.6633752 C35.9721969,16.0920129 34.9501108,16.3766949 33.8776246,16.4961103 C34.9723385,15.8223721 35.8132431,14.7440769 36.2090769,13.4510067 C35.1844062,14.0723938 34.0496308,14.5180103 32.8417108,14.7493554 Z" fill="#FFFFFF"/></g></g></svg>